<svg width="256" height="256" viewBox="0 0 256 256" fill="none" xmlns="http://www.w3.org/2000/svg">
<rect x="33.0001" y="33" width="190" height="190" fill="#5B8FB9"/>
<rect x="85.4078" width="190" height="190" transform="rotate(26.7126 85.4078 0)" fill="#B6EADA"/>
<path d="M128.25 80.0625C124.25 80.0625 120.188 80.5 116.063 81.375C111.979 82.2083 107.688 83.7708 103.188 86.0625C98.7293 88.3542 94.7918 91.25 91.3751 94.75C87.9585 98.25 85.146 102.917 82.9376 108.75C80.7293 114.542 79.6251 121.104 79.6251 128.438C79.6251 135.771 80.7293 142.354 82.9376 148.188C85.146 153.979 87.9585 158.604 91.3751 162.062C94.7918 165.479 98.7293 168.333 103.188 170.625C107.688 172.875 111.979 174.417 116.063 175.25C120.188 176.125 124.25 176.562 128.25 176.562C134.542 176.562 140.188 175.958 145.188 174.75C150.188 173.583 155.854 171.75 162.188 169.25C160.313 164.125 159.375 157.646 159.375 149.812V140.562C159.375 137.521 166.313 135.521 180.188 134.562C180.646 133.562 180.646 132.583 180.188 131.625C169.271 131.958 160.75 132.125 154.625 132.125C149.5 132.125 142.25 131.958 132.875 131.625C132.583 132.583 132.583 133.562 132.875 134.562C142.5 135.521 147.313 137.521 147.313 140.562V165.938C143.729 170.021 137.375 172.062 128.25 172.062C123.375 172.062 118.938 171.167 114.938 169.375C110.938 167.583 107.625 165.229 105 162.312C102.417 159.354 100.25 155.938 98.5001 152.062C96.7501 148.188 95.4793 144.292 94.6876 140.375C93.9376 136.417 93.5626 132.438 93.5626 128.438C93.5626 123.312 94.1876 118.312 95.4376 113.438C96.7293 108.521 98.6668 103.854 101.25 99.4375C103.875 94.9792 107.5 91.375 112.125 88.625C116.792 85.875 122.167 84.5 128.25 84.5C132.333 84.5 136.125 85.1458 139.625 86.4375C143.125 87.7292 146 89.25 148.25 91C150.542 92.75 152.75 95.1042 154.875 98.0625C157 100.979 158.604 103.521 159.688 105.688C160.813 107.812 162.146 110.521 163.688 113.812C164.979 113.646 165.75 113.188 166 112.438C162.917 100.062 158.25 91.5833 152 87C145.792 82.375 137.875 80.0625 128.25 80.0625ZM162.188 116.625C160.396 112.625 158.75 109.333 157.25 106.75C155.75 104.125 153.729 101.208 151.188 98C148.688 94.75 145.708 92.2292 142.25 90.4375C138.792 88.6458 134.938 87.5625 130.688 87.1875C125.813 87.4792 121.521 88.9583 117.813 91.625C114.104 94.25 111.229 97.625 109.188 101.75C107.146 105.875 105.625 110.188 104.625 114.688C103.625 119.146 103.125 123.729 103.125 128.438C103.125 134.938 104 141.146 105.75 147.062C107.5 152.979 110.563 158.208 114.938 162.75C119.354 167.25 124.771 169.5 131.188 169.5C137.146 169.5 141.667 167.979 144.75 164.938V140.562C144.75 139.146 140.104 137.958 130.813 137C129.688 134.083 129.771 131.396 131.063 128.938C143.521 129.521 160.75 129.646 182.75 129.312C183.708 131.812 183.75 134.375 182.875 137C173.583 137.958 168.938 139.146 168.938 140.562V149.812C168.938 157.396 170.125 164.396 172.5 170.812C166.625 173.021 162.25 174.542 159.375 175.375C156.542 176.25 152.417 177.083 147 177.875C141.583 178.708 135.333 179.125 128.25 179.125C123.958 179.125 119.667 178.667 115.375 177.75C111.083 176.875 106.583 175.25 101.875 172.875C97.1668 170.458 93.021 167.438 89.4376 163.812C85.8543 160.188 82.896 155.333 80.5626 149.25C78.2293 143.125 77.0626 136.188 77.0626 128.438C77.0626 120.688 78.2085 113.771 80.5001 107.688C82.7918 101.562 85.7085 96.6667 89.2501 93C92.7918 89.3333 96.8751 86.2917 101.5 83.875C106.167 81.4167 110.625 79.75 114.875 78.875C119.167 77.9583 123.458 77.5 127.75 77.5C134.667 77.5 142.333 78.375 150.75 80.125C159.208 81.875 164.583 82.875 166.875 83.125C165.542 88.5 165.021 93.2292 165.313 97.3125C165.604 101.354 166.771 106.312 168.813 112.188C167.604 114.646 165.396 116.125 162.188 116.625Z" fill="#03001C"/>
</svg>
